<svg width="24" height="27" viewBox="0 0 24 27" fill="none" xmlns="http://www.w3.org/2000/svg">
<path d="M15.3333 21.6C14.4 21.6 13.6111 21.2738 12.9667 20.6213C12.3222 19.9688 12 19.17 12 18.225C12 17.28 12.3222 16.4813 12.9667 15.8288C13.6111 15.1763 14.4 14.85 15.3333 14.85C16.2667 14.85 17.0556 15.1763 17.7 15.8288C18.3444 16.4813 18.6667 17.28 18.6667 18.225C18.6667 19.17 18.3444 19.9688 17.7 20.6213C17.0556 21.2738 16.2667 21.6 15.3333 21.6ZM2.66667 27C1.93333 27 1.30556 26.7356 0.783333 26.2069C0.261111 25.6781 0 25.0425 0 24.3V5.4C0 4.6575 0.261111 4.02188 0.783333 3.49313C1.30556 2.96438 1.93333 2.7 2.66667 2.7H4V0H6.66667V2.7H17.3333V0H20V2.7H21.3333C22.0667 2.7 22.6944 2.96438 23.2167 3.49313C23.7389 4.02188 24 4.6575 24 5.4V24.3C24 25.0425 23.7389 25.6781 23.2167 26.2069C22.6944 26.7356 22.0667 27 21.3333 27H2.66667ZM2.66667 24.3H21.3333V10.8H2.66667V24.3ZM2.66667 8.1H21.3333V5.4H2.66667V8.1Z" fill="white"/>
</svg>
