<svg width="280" height="86" viewBox="0 0 280 86" fill="none" xmlns="http://www.w3.org/2000/svg">
<path d="M145.025 76.5042V42.4625H139.82V76.5042H140H145.025ZM139.82 30.4583H144.846V36.0125H139.82V30.4583Z" fill="#F5AB40"/>
<path d="M151.667 6.62915H156.693V54.6458H151.667V6.62915Z" fill="#00A7DC"/>
<path d="M127.974 6.62915H133V54.6458H127.974V6.62915ZM35 21.5H40.0256V54.6458H35V21.5Z" fill="#F5AB40"/>
<path d="M175.538 21.5C166.205 21.5 160.641 29.025 160.641 38.7C160.641 48.1958 166.564 54.6458 176.256 54.6458C181.282 54.6458 184.871 53.5708 186.846 52.675L187.205 52.4958V48.1958C185.23 48.9125 180.923 50.1667 176.974 50.1667C171.23 50.1667 166.205 46.9417 166.025 39.2375H188.461C188.461 38.7 188.641 37.8042 188.641 36.55C188.641 30.6375 185.948 21.5 175.538 21.5ZM183.077 34.9375H166.205C166.743 30.9958 169.256 25.6208 175 25.6208C181.641 25.6208 183.256 31.3542 183.077 34.9375ZM218.435 33.325C218.615 26.875 215.205 21.5 205.692 21.5C201.564 21.5 197.974 22.0375 195.282 23.65V27.95C197.974 26.6958 201.743 25.6208 204.794 25.6208C211.615 25.9792 213.051 30.2792 213.051 32.9667V35.8333C198.871 31.5333 192.41 37.625 192.589 45.5083C192.769 50.1667 196 54.6458 202.641 54.6458C207.128 54.6458 211.256 53.5708 213.23 51.2417V54.6458H218.435V33.325ZM213.23 45.5083C211.077 48.0167 208.564 50.525 204.256 50.525C201.205 50.525 198.153 48.5542 198.153 44.7917C198.153 38.5208 206.23 38.3417 213.23 40.3125V45.5083Z" fill="#00A7DC"/>
<path d="M123.308 31.7125C121.513 24.9042 116.846 21.6792 110.205 21.5H108.231C108.051 21.5 107.692 21.5 107.513 21.6792C103.205 22.3958 100.513 25.2625 100.513 25.2625V21.5H95.4873V69.6958H100.513V51.2417C100.513 51.2417 103.744 54.2875 108.231 54.6458H111.103C116.308 54.1083 120.077 51.7792 122.231 47.1208C124.564 42.1042 124.744 36.9083 123.308 31.7125ZM118.821 39.0583V39.775C118.641 41.0292 118.282 42.2833 118.103 43.1792C117.744 44.075 116.128 48.0167 112.18 49.0917C111.462 49.2708 110.744 49.45 109.846 49.45C109.846 49.45 103.385 49.45 100.513 44.2542V31.5333C100.513 31.3542 102.487 27.2333 107.872 26.1583C108.59 25.9792 110.923 25.8 113.077 26.5167H113.257L113.616 26.6958L113.974 26.875L114.333 27.0542C115.949 28.1292 118.821 30.9958 119 36.9083C119 37.8042 118.821 38.3417 118.821 39.0583Z" fill="#F5AB40"/>
<path d="M227.59 25.4417V21.5H222.205V54.6459H227.59V36.1917C227.59 32.6084 228.308 30.8167 228.487 30.6375L229.564 29.025C230.103 28.4875 231.179 27.5917 232.795 26.875C233.333 26.6959 233.872 26.5167 234.59 26.3375H235.487C236.205 26.1584 236.923 26.1584 237.82 25.9792H240.333V21.5C232.436 21.1417 228.487 24.725 227.59 25.4417Z" fill="#00A7DC"/>
<path d="M31.0513 43.5375C30.6923 39.775 28.359 37.625 24.7692 36.55C23.8718 36.1917 22.7949 36.0125 21.8974 35.8333C19.9231 35.2958 17.9487 34.9375 16.1538 34.2208C12.7436 32.7875 13.4615 28.6667 15.4359 27.2333C16.6923 26.3375 18.3077 25.8 19.9231 25.8H22.9743C24.0513 25.9792 24.9487 25.9792 26.0256 26.3375C28 26.875 29.6154 27.5917 29.6154 27.5917V23.2917C29.4359 23.2917 28.5385 22.9333 28.5385 22.9333C24.9487 21.8583 21.359 21.3208 17.5897 21.8583C12.7436 22.575 8.43589 25.9792 8.97435 32.25C9.15384 34.7583 10.4102 36.7292 12.7436 37.625C14.5385 38.5208 16.6923 38.8792 18.4872 39.4167C20.1026 39.9542 21.8974 40.4917 23.5128 41.0292C24.5897 41.3875 25.3077 42.2833 25.4872 43.3583C26.2051 45.8667 25.3077 48.0167 22.6154 49.2708C20.282 50.3458 17.7692 50.3458 15.2564 50.1667C10.7692 49.8083 8.97435 48.375 8.97435 48.375V52.4958C8.97435 52.4958 10.2308 53.0333 11.8461 53.5708L14 54.1083C16.5128 54.4667 19.0256 54.4667 21.7179 53.9292C23.3333 53.5708 24.9487 53.0333 26.3846 52.3167C29.7949 50.8833 31.5897 47.4792 31.0513 43.5375ZM35 11.4667H40.0256V17.0208H35V11.4667Z" fill="#F5AB40"/>
<path d="M270.487 30.2792C268.692 23.2917 262.949 22.0375 261.692 21.6792H261.154C257.923 21.3208 255.59 21.6792 253.616 22.3958L253.257 22.575C250.744 23.65 249.667 25.2625 249.667 25.2625V21.5H244.282V54.4667H249.667V34.2208C249.667 29.9208 253.257 26.3375 257.744 26.3375H257.923C257.923 26.3375 261.872 25.9792 264.205 29.025L264.385 29.2042L264.744 29.7417C264.923 30.1 265.103 30.2792 265.282 30.6375C265.282 30.8167 265.462 30.9958 265.462 31.3542C265.641 32.0708 266 33.8625 266 37.2667V54.4667H271.385V34.7583C271.026 32.9667 270.846 31.5333 270.487 30.2792Z" fill="#00A7DC"/>
<path d="M78.6156 21.5C72.1541 21.6792 69.2823 24.725 68.3849 25.9792L68.0259 26.5167V26.1583L67.8464 25.9792L67.6669 25.6208C66.4105 23.8292 64.6156 22.7542 63.7182 22.3958C61.2054 21.5 59.0515 21.5 58.6926 21.5H58.5131C55.2823 21.3208 52.949 22.575 52.949 22.575C50.2567 23.65 49.0002 25.2625 49.0002 25.2625V21.5H43.9746V54.4667H49.0002V34.5792C49.0002 33.325 49.1797 32.4292 49.3592 31.8917C50.2567 28.3083 53.4874 25.8 57.2567 25.8C60.6669 25.8 63.3592 27.5917 64.6156 30.4583C64.9746 31.3542 65.1541 32.4292 65.1541 33.5042V54.2875H70.1797V33.8625C70.1797 29.2042 73.7695 25.8 78.2567 25.8C79.872 25.8 81.4874 26.3375 82.7438 27.2333C84.8977 28.6667 86.3336 30.8167 86.3336 33.6833V54.2875H91.5387V34.4C91.5387 31.7125 91.0003 29.5625 90.1028 27.7708C86.872 22.0375 80.949 21.5 78.6156 21.5Z" fill="#F5AB40"/>
</svg>
