<svg width="33" height="26" viewBox="0 0 33 26" fill="none" xmlns="http://www.w3.org/2000/svg">
<path d="M2.75014 26C2.00764 26 1.36359 25.7315 0.817988 25.1944C0.272663 24.6571 0 24.0228 0 23.2915V2.70847C0 1.97722 0.272663 1.34293 0.817988 0.805594C1.36359 0.268532 2.00764 0 2.75014 0H30.2499C30.9924 0 31.6364 0.268532 32.182 0.805594C32.7273 1.34293 33 1.97722 33 2.70847V23.2915C33 24.0228 32.7273 24.6571 32.182 25.1944C31.6364 25.7315 30.9924 26 30.2499 26H2.75014ZM16.5 14.029L2.75014 5.28125V23.2915H30.2499V5.28125L16.5 14.029ZM16.5 11.321L30.1401 2.70847H2.8875L16.5 11.321ZM2.75014 5.28125V2.70847V23.2915V5.28125Z" fill="#434343" fill-opacity="0.29"/>
</svg>
