<svg width="43" height="38" viewBox="0 0 43 38" fill="none" xmlns="http://www.w3.org/2000/svg">
<path d="M3 17.5V29V3V17.5ZM23.925 35C24.6083 35 25.1917 34.75 25.675 34.25C26.1583 33.75 26.4 33.1583 26.4 32.475C26.4 31.7917 26.1605 31.2083 25.6815 30.725C25.2022 30.2417 24.6083 30 23.9 30C23.2333 30 22.65 30.2395 22.15 30.7185C21.65 31.1978 21.4 31.7917 21.4 32.5C21.4 33.1667 21.65 33.75 22.15 34.25C22.65 34.75 23.2417 35 23.925 35ZM36.925 14C37.6083 14 38.1917 13.75 38.675 13.25C39.1583 12.75 39.4 12.1583 39.4 11.475C39.4 10.7917 39.1605 10.2083 38.6815 9.725C38.2022 9.24167 37.6083 9 36.9 9C36.2333 9 35.65 9.2395 35.15 9.7185C34.65 10.1978 34.4 10.7917 34.4 11.5C34.4 12.1667 34.65 12.75 35.15 13.25C35.65 13.75 36.2417 14 36.925 14ZM8.4 13H18.4V10H8.4V13ZM8.4 22H18.4V19H8.4V22ZM3 32C2.2 32 1.5 31.7 0.9 31.1C0.3 30.5 0 29.8 0 29V3C0 2.2 0.3 1.5 0.9 0.9C1.5 0.3 2.2 0 3 0H37.8C38.6 0 39.3 0.3 39.9 0.9C40.5 1.5 40.8 2.2 40.8 3H3V29H15.4V32H3ZM23.894 38C22.3647 38 21.0667 37.4653 20 36.396C18.9333 35.3263 18.4 34.0277 18.4 32.5C18.4 31.2333 18.775 30.1167 19.525 29.15C20.275 28.1833 21.2333 27.5333 22.4 27.2V20.5H35.4V16.8C34.2333 16.4667 33.275 15.8167 32.525 14.85C31.775 13.8833 31.4 12.7667 31.4 11.5C31.4 9.97233 31.9353 8.67367 33.006 7.604C34.0767 6.53467 35.3767 6 36.906 6C38.4353 6 39.7333 6.53467 40.8 7.604C41.8667 8.67367 42.4 9.97233 42.4 11.5C42.4 12.7667 42.025 13.8833 41.275 14.85C40.525 15.8167 39.5667 16.4667 38.4 16.8V23.5H25.4V27.2C26.5667 27.5333 27.525 28.1833 28.275 29.15C29.025 30.1167 29.4 31.2333 29.4 32.5C29.4 34.0277 28.8647 35.3263 27.794 36.396C26.7233 37.4653 25.4233 38 23.894 38Z" fill="#1D4DF4"/>
</svg>
