<svg width="36" height="36" viewBox="0 0 36 36" fill="none" xmlns="http://www.w3.org/2000/svg">
<path d="M17.85 36C12.8833 36 8.66667 34.2417 5.2 30.725C1.73333 27.2083 0 22.95 0 17.95H3C3 22.1167 4.43333 25.6667 7.3 28.6C10.1667 31.5333 13.6833 33 17.85 33C22.0833 33 25.6667 31.5167 28.6 28.55C31.5333 25.5833 33 21.9833 33 17.75C33 13.6167 31.5167 10.125 28.55 7.275C25.5833 4.425 22.0167 3 17.85 3C15.5833 3 13.4583 3.51667 11.475 4.55C9.49167 5.58333 7.76667 6.95 6.3 8.65H11.55V11.65H1.1V1.25H4.1V6.55C5.83333 4.51667 7.89167 2.91667 10.275 1.75C12.6583 0.583333 15.1833 0 17.85 0C20.35 0 22.7 0.466667 24.9 1.4C27.1 2.33333 29.025 3.60833 30.675 5.225C32.325 6.84167 33.625 8.73333 34.575 10.9C35.525 13.0667 36 15.4 36 17.9C36 20.4 35.525 22.75 34.575 24.95C33.625 27.15 32.325 29.0667 30.675 30.7C29.025 32.3333 27.1 33.625 24.9 34.575C22.7 35.525 20.35 36 17.85 36ZM24.25 26.15L16.55 18.55V7.85H19.55V17.3L26.4 24L24.25 26.15Z" fill="#1D4DF4"/>
</svg>
