<svg width="41" height="41" viewBox="0 0 41 41" fill="none" xmlns="http://www.w3.org/2000/svg">
<path d="M5.6 16.3771L10.9 18.6271C11.5 17.4271 12.1417 16.2438 12.825 15.0771C13.5083 13.9105 14.2333 12.7938 15 11.7271L11.05 10.9271L5.6 16.3771ZM13.3 20.4271L19.95 27.0771C21.85 26.2105 23.6333 25.2271 25.3 24.1271C26.9667 23.0271 28.3167 21.9605 29.35 20.9271C32.05 18.2271 34.0333 15.4605 35.3 12.6271C36.5667 9.79381 37.25 6.59381 37.35 3.02714C33.7833 3.12714 30.5833 3.81048 27.75 5.07714C24.9167 6.34381 22.15 8.32714 19.45 11.0271C18.4167 12.0605 17.35 13.4105 16.25 15.0771C15.15 16.7438 14.1667 18.5271 13.3 20.4271ZM24.75 15.6271C24.0833 14.9605 23.75 14.1355 23.75 13.1521C23.75 12.1688 24.0833 11.3438 24.75 10.6771C25.4167 10.0105 26.2417 9.67714 27.225 9.67714C28.2083 9.67714 29.0333 10.0105 29.7 10.6771C30.3667 11.3438 30.7 12.1688 30.7 13.1521C30.7 14.1355 30.3667 14.9605 29.7 15.6271C29.0333 16.2938 28.2083 16.6271 27.225 16.6271C26.2417 16.6271 25.4167 16.2938 24.75 15.6271ZM24 34.7771L29.45 29.3271L28.65 25.3771C27.5833 26.1438 26.4667 26.8688 25.3 27.5521C24.1333 28.2355 22.95 28.8771 21.75 29.4771L24 34.7771ZM40.3 0.0771429C40.6 4.61048 40.0333 8.74381 38.6 12.4771C37.1667 16.2105 34.8 19.7271 31.5 23.0271L31.4 23.1271L31.3 23.2271L32.4 28.7271C32.5 29.2271 32.475 29.7105 32.325 30.1771C32.175 30.6438 31.9167 31.0605 31.55 31.4271L23 40.0271L18.75 30.1271L10.25 21.6271L0.35 17.3771L8.95 8.82714C9.31667 8.46048 9.73333 8.20214 10.2 8.05214C10.6667 7.90214 11.15 7.87714 11.65 7.97714L17.15 9.07714C17.1833 9.04381 17.2167 9.01881 17.25 9.00214C17.2833 8.98548 17.3167 8.96048 17.35 8.92714C20.65 5.62714 24.1667 3.25214 27.9 1.80214C31.6333 0.352143 35.7667 -0.222857 40.3 0.0771429ZM3.7 27.6771C4.86667 26.5105 6.29167 25.9188 7.975 25.9021C9.65833 25.8855 11.0833 26.4605 12.25 27.6271C13.4167 28.7938 13.9917 30.2188 13.975 31.9021C13.9583 33.5855 13.3667 35.0105 12.2 36.1771C11.3333 37.0438 9.99167 37.7605 8.175 38.3271C6.35833 38.8938 3.63333 39.4271 0 39.9271C0.5 36.2938 1.025 33.5605 1.575 31.7271C2.125 29.8938 2.83333 28.5438 3.7 27.6771ZM5.8 29.8271C5.33333 30.3271 4.91667 31.1105 4.55 32.1771C4.18333 33.2438 3.86667 34.6105 3.6 36.2771C5.26667 36.0105 6.63333 35.6938 7.7 35.3271C8.76667 34.9605 9.55 34.5438 10.05 34.0771C10.6833 33.5105 11.0083 32.8021 11.025 31.9521C11.0417 31.1021 10.75 30.3605 10.15 29.7271C9.51667 29.1271 8.775 28.8355 7.925 28.8521C7.075 28.8688 6.36667 29.1938 5.8 29.8271Z" fill="#1D4DF4"/>
</svg>
